<svg xmlns="http://www.w3.org/2000/svg" viewBox="0 0 24 24" width="24" height="24">
  <path d="M1.84863 18.1639H6.06813C6.13982 20.1553 7.7375 22 10.0931 22C12.4384 22 14.0463 20.1763 14.1282 18.1639H18.3375C19.4026 18.1639 20.0581 17.5665 20.0581 16.6651C20.0581 15.5436 19.0646 14.5898 18.1326 13.6779C17.4055 12.9547 17.2314 11.5083 17.0983 10.0305C16.9549 6.07909 15.8181 3.43783 13.1553 2.4526C12.7558 1.0586 11.619 0 10.0931 0C8.56707 0 7.43026 1.0586 7.04108 2.4526C4.36804 3.43783 3.24147 6.07909 3.08785 10.0305C2.95471 11.5083 2.78061 12.9547 2.05346 13.6779C1.12148 14.5898 0.128052 15.5436 0.128052 16.6651C0.128052 17.5665 0.783509 18.1639 1.84863 18.1639ZM2.62698 16.2144V16.0886C2.89326 15.7847 3.48727 15.2292 3.98911 14.6422C4.69577 13.8142 5.0235 12.2839 5.12591 10.2925C5.24881 6.08957 6.51876 4.67461 8.1574 4.22392C8.41344 4.15055 8.54658 4.02477 8.56707 3.74178C8.61827 2.68318 9.20204 1.97046 10.0931 1.97046C10.9943 1.97046 11.5678 2.68318 11.619 3.74178C11.6395 4.02477 11.7829 4.15055 12.0287 4.22392C13.6776 4.67461 14.9373 6.08957 15.0602 10.2925C15.1728 12.2839 15.5006 13.8142 16.197 14.6422C16.6988 15.2292 17.2724 15.7847 17.5386 16.0886V16.2144H2.62698ZM10.0931 20.3125C8.93576 20.3125 8.1062 19.4636 8.03451 18.1639H12.1618C12.1004 19.4531 11.2606 20.3125 10.0931 20.3125Z" fill="currentColor"/>
</svg>
