<svg width="18" height="22" viewBox="0 0 18 22" fill="none" xmlns="http://www.w3.org/2000/svg">
<path d="M3.29086 22H16.5051C17.0434 22 17.4598 21.5836 17.4598 21.0452C17.4598 20.5882 17.145 20.253 16.759 20.0702C15.5097 19.5115 15.2659 17.7849 16.5355 16.5762C17.0536 16.1191 17.4497 15.6113 17.4497 14.5854V3.34164C17.4497 1.14774 16.3223 0 14.1385 0H3.31117C1.13758 0 0 1.13758 0 3.34164V18.6888C0 20.8624 1.13758 22 3.29086 22ZM13.9557 2.02124C14.9409 2.02124 15.4284 2.53924 15.4284 3.47368V14.2705C15.4284 14.7682 15.144 15.0425 14.6362 15.0425H4.66205V2.02124H13.9557ZM2.02124 15.398V3.47368C2.02124 2.63066 2.41736 2.13296 3.21976 2.04155V15.0526C2.7627 15.0933 2.36657 15.2151 2.02124 15.398ZM6.48015 6.67313H13.5799C13.976 6.67313 14.301 6.34811 14.301 5.95199C14.301 5.55586 13.976 5.23084 13.5799 5.23084H6.48015C6.08403 5.23084 5.759 5.55586 5.759 5.95199C5.759 6.34811 6.08403 6.67313 6.48015 6.67313ZM6.48015 9.50693H11.8633C12.2595 9.50693 12.5845 9.1819 12.5845 8.78578C12.5845 8.38966 12.2595 8.06464 11.8633 8.06464H6.48015C6.08403 8.06464 5.759 8.38966 5.759 8.78578C5.759 9.1819 6.08403 9.50693 6.48015 9.50693ZM3.5651 20.0905C2.4783 20.0905 1.90951 19.4709 1.90951 18.5162C1.90951 17.5919 2.55956 16.952 3.6362 16.952H13.7729C13.8846 16.952 13.9963 16.9418 14.0979 16.9215C13.59 17.9982 13.651 19.1662 14.1994 20.0905H3.5651Z" fill="#002C57"/>
</svg>
