<svg width="23" height="22" viewBox="0 0 23 22" fill="none" xmlns="http://www.w3.org/2000/svg">
<path d="M11.1211 15.3118L12.6827 13.7297C11.4783 13.6277 10.6107 13.2296 9.98807 12.607C8.26308 10.882 8.26308 8.4425 9.97786 6.73792L13.3666 3.33898C15.0916 1.6242 17.5209 1.61399 19.2459 3.33898C20.9811 5.07418 20.9606 7.50345 19.2561 9.21823L17.5209 10.9432C17.8475 11.6985 17.9598 12.6172 17.776 13.4133L20.6953 10.5043C23.2062 8.0036 23.2164 4.43113 20.685 1.89979C18.1435 -0.641766 14.5914 -0.621352 12.0805 1.88958L8.52846 5.44163C6.01753 7.95256 6.00732 11.5148 8.53867 14.0462C9.13068 14.6484 9.94724 15.0975 11.1211 15.3118ZM12.0703 6.68689L10.5086 8.26898C11.7131 8.38126 12.5807 8.76913 13.2033 9.39175C14.9385 11.1167 14.9283 13.5562 13.2135 15.271L9.82476 18.6597C8.09977 20.3847 5.67049 20.3847 3.95571 18.6597C2.22051 16.9245 2.23072 14.5055 3.9455 12.7907L5.67049 11.0555C5.34387 10.3104 5.2418 9.39175 5.41532 8.5854L2.4961 11.5046C-0.0148296 14.0053 -0.0250366 17.5676 2.50631 20.0989C5.04786 22.6405 8.59991 22.6201 11.1108 20.1194L14.6629 16.5571C17.1738 14.0462 17.184 10.4839 14.6527 7.95256C14.0607 7.36055 13.2543 6.91144 12.0703 6.68689Z" fill="#002C57"/>
</svg>
