<svg xmlns="http://www.w3.org/2000/svg" viewBox="0 0 24 24" width="24" height="24">
  <path d="M4.80744 22C6.23696 22 9.12687 20.6186 11.3072 19.0735C18.5679 19.2065 23.9981 15.0316 23.9981 9.54698C23.9981 4.25674 18.681 0 12.0579 0C5.43478 0 0.128052 4.25674 0.128052 9.54698C0.128052 12.9135 2.22606 15.9116 5.44507 17.4772C5.00284 18.306 4.22123 19.4419 3.779 20.0353C3.1208 20.9051 3.57331 22 4.80744 22ZM6.05184 19.8819C5.91815 19.933 5.86672 19.8614 5.95928 19.7488C6.48379 19.1144 7.25511 18.1014 7.63563 17.3851C7.94417 16.8223 7.84132 16.3312 7.18312 16.0242C4.04639 14.5609 2.22606 12.2177 2.22606 9.54698C2.22606 5.43349 6.58663 2.08744 12.0579 2.08744C17.5292 2.08744 21.8898 5.43349 21.8898 9.54698C21.8898 13.6605 17.5292 17.0167 12.0579 17.0167C11.8728 17.0167 11.5848 17.0065 11.2352 17.0065C10.7929 16.9963 10.4638 17.1293 10.0525 17.4465C8.80805 18.3674 6.96715 19.5135 6.05184 19.8819Z" fill="currentColor"/>
</svg>
