<svg width="18" height="22" viewBox="0 0 18 22" fill="none" xmlns="http://www.w3.org/2000/svg">
<path d="M3.47838 22H14.3007C16.4835 22 17.6104 20.8528 17.6104 18.6599V9.44162C17.6104 8.0203 17.4276 7.37056 16.5444 6.46701L11.2347 1.07614C10.3718 0.203046 9.66112 0 8.38193 0H3.47838C1.30579 0 0.168732 1.14721 0.168732 3.35025V18.6599C0.168732 20.8528 1.30579 22 3.47838 22ZM3.65096 19.9695C2.67635 19.9695 2.18904 19.4619 2.18904 18.5279V3.47208C2.18904 2.54822 2.67635 2.03046 3.66112 2.03046H7.96569V7.5533C7.96569 9.02538 8.6865 9.73604 10.1484 9.73604H15.5901V18.5279C15.5901 19.4619 15.1027 19.9695 14.118 19.9695H3.65096ZM10.3413 7.95939C9.91492 7.95939 9.73218 7.77665 9.73218 7.36041V2.29442L15.3159 7.95939H10.3413Z" fill="#002C57"/>
</svg>