<svg width="24" height="22" viewBox="0 0 25 22" fill="none" xmlns="http://www.w3.org/2000/svg">
<path d="M4.04707 21.25H21.6343C23.7387 21.25 24.9598 19.9432 24.9598 17.4464V4.55364C24.9598 2.05677 23.7278 0.75 21.3726 0.75H3.78538C1.68102 0.75 0.459839 2.04511 0.459839 4.55364V17.4464C0.459839 19.9432 1.69193 21.25 4.04707 21.25ZM11.4832 11.4025L3.54551 3.00185C3.69816 2.96685 3.87261 2.94351 4.05797 2.94351H21.3617C21.558 2.94351 21.7324 2.96685 21.896 3.01352L13.9692 11.4025C13.5112 11.8809 13.1296 12.0909 12.7262 12.0909C12.3228 12.0909 11.9411 11.8692 11.4832 11.4025ZM2.49878 4.71699L8.43024 10.9592L2.49878 17.2363V4.71699ZM17.0221 10.9592L22.9209 4.75199V17.213L17.0221 10.9592ZM4.05797 19.0448C3.86171 19.0448 3.67635 19.0215 3.5128 18.9865L9.76046 12.3593L10.3492 12.9893C11.1452 13.8177 11.9084 14.1678 12.7262 14.1678C13.533 14.1678 14.3072 13.8177 15.0922 12.9893L15.6919 12.3593L21.9287 18.9748C21.7542 19.0215 21.5689 19.0448 21.3617 19.0448H4.05797Z" fill="#002C57"/>
</svg>