<svg xmlns="http://www.w3.org/2000/svg" viewBox="0 0 50 50" width="50" height="50">
  <!-- Círculo exterior (con fondo transparente) -->
  <path d="M24.9879 50C38.6902 50 50 38.6847 50 25C50 11.3153 38.666 0 24.9637 0C11.2856 0 0 11.3153 0 25C0 38.6847 11.3098 50 24.9879 50Z" fill="transparent" stroke="none"/>
  
  <!-- Solo el signo de interrogación interior -->
  <path d="M24.4079 29.9807C22.8371 29.9807 21.9671 29.2553 21.9671 27.8046V27.5387C21.9671 25.266 23.2721 23.9845 25.0604 22.7273C27.187 21.2524 28.2262 20.4545 28.2262 18.9072C28.2262 17.2389 26.9454 16.1267 24.9637 16.1267C23.5138 16.1267 22.4505 16.852 21.653 18.0851C20.8797 18.9555 20.5172 19.705 19.0672 19.705C17.883 19.705 16.9164 18.9313 16.9164 17.7224C16.9164 17.2389 17.013 16.8037 17.1822 16.3685C17.9797 13.999 20.8797 12.0648 25.2054 12.0648C29.7003 12.0648 33.4944 14.4584 33.4944 18.6654C33.4944 21.5667 31.8995 23.0174 29.3862 24.6373C27.7912 25.677 26.8729 26.5474 26.8004 27.853C26.8004 27.9255 26.7762 28.0464 26.7762 28.1431C26.7037 29.1828 25.8096 29.9807 24.4079 29.9807ZM24.3838 37.7176C22.7405 37.7176 21.3871 36.5329 21.3871 34.9371C21.3871 33.3414 22.7163 32.1567 24.3838 32.1567C26.0271 32.1567 27.3562 33.3414 27.3562 34.9371C27.3562 36.5571 26.0029 37.7176 24.3838 37.7176Z" fill="#002c57"/>
</svg>
